SplineFontDB: 3.2
FontName: font35318
FullName: font35318
FamilyName: funken
Weight: Regular
ItalicAngle: 0
UnderlinePosition: 0
UnderlineWidth: 0
Ascent: 800
Descent: 200
InvalidEm: 0
LayerCount: 2
Layer: 0 0 "Back" 1
Layer: 1 0 "Fore" 0
HasVMetrics: 1
XUID: [1021 429 -995430483 245555]
OS2Version: 0
OS2_WeightWidthSlopeOnly: 0
OS2_UseTypoMetrics: 0
CreationTime: 1734660594
ModificationTime: 1741214255
PfmFamily: 17
TTFWeight: 400
TTFWidth: 5
LineGap: 90
VLineGap: 90
OS2TypoAscent: 0
OS2TypoAOffset: 1
OS2TypoDescent: 0
OS2TypoDOffset: 1
OS2TypoLinegap: 90
OS2WinAscent: 0
OS2WinAOffset: 1
OS2WinDescent: 0
OS2WinDOffset: 1
HheadAscent: 0
HheadAOffset: 1
HheadDescent: 0
HheadDOffset: 1
OS2Vendor: 'PfEd'
Lookup: 258 0 0 "'kern' Horizontal Kerning in Latin lookup 0" { "'kern' Horizontal Kerning in Latin lookup 0 subtable"  } ['kern' ('latn' <'dflt' > ) ]
DEI: 91125
Encoding: Original
UnicodeInterp: none
NameList: AGL For New Fonts
DisplaySize: -48
AntiAlias: 1
FitToEm: 0
WidthSeparation: 90
WinInfo: 0 25 9
BeginChars: 90 90

StartChar: .notdef
Encoding: 0 0 0
Width: 410
VWidth: 1024
LayerCount: 2
Fore
SplineSet
0 0 m 1
 1000 0 l 1
 1000 1000 l 1
 0 1000 l 1
 0 0 l 1
EndSplineSet
EndChar

StartChar: 
Encoding: 2 35 2
Width: 423
VWidth: 1024
Flags: W
LayerCount: 2
Fore
SplineSet
138 500 m 1
 126.57421875 420 l 1
 38 420 l 1
 38 370 l 1
 119.42578125 370 l 1
 106.57421875 280 l 1
 38 280 l 1
 38 230 l 1
 99.42578125 230 l 1
 88 150 l 1
 138 150 l 1
 149.42578125 230 l 1
 249.42578125 230 l 1
 238 150 l 1
 288 150 l 1
 299.42578125 230 l 1
 388 230 l 1
 388 280 l 1
 306.57421875 280 l 1
 319.42578125 370 l 1
 388 370 l 1
 388 420 l 1
 326.57421875 420 l 1
 338 500 l 1
 288 500 l 1
 276.57421875 420 l 1
 176.57421875 420 l 1
 188 500 l 1
 138 500 l 1
169.42578125 370 m 1
 269.42578125 370 l 1
 256.57421875 280 l 1
 156.57421875 280 l 1
 169.42578125 370 l 1
EndSplineSet
EndChar

StartChar: 
Encoding: 3 36 3
Width: 375
VWidth: 1024
Flags: W
HStem: 500 21G<136 156> 500 21G<136 156>
LayerCount: 2
Fore
SplineSet
156 750 m 1x40
 156 700 l 1
 86 700 l 1
 36 650 l 1
 36 500 l 1
 86 450 l 1
 156 450 l 1
 156 250 l 1
 36 250 l 1
 36 200 l 1
 156 200 l 1
 156 150 l 1
 206 150 l 1
 206 200 l 1
 286 200 l 1
 336 250 l 1
 336 450 l 1
 286 500 l 1
 206 500 l 1
 206 650 l 1
 336 650 l 1
 336 700 l 1
 206 700 l 1
 206 750 l 1
 156 750 l 1x40
136 650 m 1
 156 650 l 1
 156 500 l 1
 136 500 l 1x80
 136 650 l 1
206 450 m 1
 236 450 l 1
 236 250 l 1
 206 250 l 1
 206 450 l 1
EndSplineSet
EndChar

StartChar: 
Encoding: 4 37 4
Width: 315
VWidth: 1024
Flags: W
LayerCount: 2
Fore
SplineSet
50 750 m 1
 30 730 l 1
 30 670 l 1
 50 650 l 1
 110 650 l 1
 130 670 l 1
 130 730 l 1
 110 750 l 1
 50 750 l 1
180 750 m 1
 30 150 l 1
 130 150 l 1
 280 750 l 1
 180 750 l 1
60 730 m 1
 100 730 l 1
 100 670 l 1
 60 670 l 1
 60 730 l 1
200 250 m 1
 180 230 l 1
 180 170 l 1
 200 150 l 1
 260 150 l 1
 280 170 l 1
 280 230 l 1
 260 250 l 1
 200 250 l 1
210 230 m 1
 250 230 l 1
 250 170 l 1
 210 170 l 1
 210 230 l 1
EndSplineSet
EndChar

StartChar: 
Encoding: 5 40 5
Width: 273
VWidth: 1024
Flags: W
LayerCount: 2
Fore
SplineSet
142 750 m 1
 42 650 l 1
 42 250 l 1
 142 150 l 1
 242 150 l 1
 242 200 l 1
 192 200 l 1
 142 250 l 1
 142 650 l 1
 192 700 l 1
 242 700 l 1
 242 750 l 1
 142 750 l 1
EndSplineSet
EndChar

StartChar: 
Encoding: 6 41 6
Width: 273
VWidth: 1024
Flags: W
HStem: 150 50<32 82> 700 50<32 82>
VStem: 132 100<250 650>
LayerCount: 2
Fore
SplineSet
131.999023438 750 m 1
 232 650 l 1
 232 250 l 1
 131.999023438 150 l 1
 32 150 l 1
 32 200 l 1
 82 200 l 1
 132 250 l 1
 132 650 l 1
 82 700 l 1
 32 700 l 1
 32 750 l 1
 131.999023438 750 l 1
EndSplineSet
EndChar

StartChar: 
Encoding: 7 43 7
Width: 225
VWidth: 1024
Flags: W
HStem: 250 150
VStem: 38 150
LayerCount: 2
Fore
SplineSet
88 400 m 1
 88 350 l 1
 38 350 l 1
 38 300 l 1
 88 300 l 1
 88 250 l 1
 138 250 l 1
 138 300 l 1
 188 300 l 1
 188 350 l 1
 138 350 l 1
 138 400 l 1
 88 400 l 1
EndSplineSet
EndChar

StartChar: 
Encoding: 8 45 8
Width: 227
VWidth: 1024
Flags: W
HStem: 300 50<39 189>
VStem: 39 150<300 350>
LayerCount: 2
Fore
SplineSet
39 350 m 1
 189 350 l 1
 189 300 l 1
 39 300 l 1
 39 350 l 1
EndSplineSet
EndChar

StartChar: 
Encoding: 9 46 9
Width: 132
VWidth: 1024
Flags: W
HStem: 150 50<41 91>
VStem: 41 50<150 200>
LayerCount: 2
Fore
SplineSet
41 200 m 1
 91 200 l 1
 91 150 l 1
 41 150 l 1
 41 200 l 1
EndSplineSet
EndChar

StartChar: 
Encoding: 10 49 10
Width: 274
VWidth: 1024
Flags: W
HStem: 150 21G<130 230> 450 50<30 130>
VStem: 130 100<150 450>
LayerCount: 2
Fore
SplineSet
30 500 m 1
 230 500 l 1
 230 150 l 1
 130 150 l 1
 130 450 l 1
 30 450 l 1
 30 500 l 1
EndSplineSet
EndChar

StartChar: 
Encoding: 11 50 11
Width: 372
VWidth: 1024
Flags: W
HStem: 150.001 50<136 336> 450 50<36 236>
VStem: 236 100<400.001 450>
LayerCount: 2
Fore
SplineSet
36 500 m 1
 286 500.000976562 l 1
 336 450.000976562 l 1
 336 400.000976562 l 1
 286 350.000976562 l 1
 136 200.000976562 l 1
 336 200.000976562 l 1
 336 150.000976562 l 1
 36 150.000976562 l 1
 36 200 l 1
 236 400 l 1
 236 450 l 1
 36 450 l 1
 36 500 l 1
EndSplineSet
EndChar

StartChar: 
Encoding: 12 51 12
Width: 327
VWidth: 1024
Flags: W
LayerCount: 2
Fore
SplineSet
186 450 m 1
 186 350 l 1
 86 350 l 1
 86 300 l 1
 186 300 l 1
 186 200 l 1
 36 200 l 1
 36 150 l 1
 236 150 l 1
 286 200 l 1
 286 300 l 1
 256 325 l 1
 286 350 l 1
 286 450 l 1
 236 500 l 1
 36 500 l 1
 36 450 l 1
 186 450 l 1
EndSplineSet
EndChar

StartChar: 
Encoding: 13 52 13
Width: 370
VWidth: 1024
Flags: W
VStem: 38 300
LayerCount: 2
Fore
SplineSet
188 500 m 1
 38 350 l 1
 38 250 l 1
 188 250 l 1
 188 150 l 1
 288 150 l 1
 288 250 l 1
 338 250 l 1
 338 300 l 1
 288 300 l 1
 288 500 l 1
 188 500 l 1
188 450 m 1
 188 300 l 1
 88 300 l 1
 88 350 l 1
 188 450 l 1
EndSplineSet
EndChar

StartChar: 
Encoding: 14 53 14
Width: 386
VWidth: 1024
Flags: W
VStem: 44 300
LayerCount: 2
Fore
SplineSet
44 500 m 1
 44 300 l 1
 244 300 l 1
 244 200 l 1
 44 200 l 1
 44 150 l 1
 294 150 l 1
 344 200 l 1
 344 300 l 1
 294 350 l 1
 144 350 l 1
 144 450 l 1
 344 450 l 1
 344 500 l 1
 44 500 l 1
EndSplineSet
EndChar

StartChar: 
Encoding: 15 54 15
Width: 385
VWidth: 1024
Flags: W
LayerCount: 2
Fore
SplineSet
93 500 m 1
 43 450 l 1
 43 200 l 1
 93 150 l 1
 293 150 l 1
 343 200 l 1
 343 300 l 1
 293 350 l 1
 143 350 l 1
 143 450 l 1
 343 450 l 1
 343 500 l 1
 93 500 l 1
143 300 m 1
 243 300 l 1
 243 200 l 1
 143 200 l 1
 143 300 l 1
EndSplineSet
EndChar

StartChar: 
Encoding: 16 55 16
Width: 312
VWidth: 1024
Flags: W
LayerCount: 2
Fore
SplineSet
30 500 m 1
 30 450 l 1
 130 450 l 1
 130 400 l 1
 80 400 l 1
 80 350 l 1
 130 350 l 1
 130 150 l 1
 230 150 l 1
 230 350 l 1
 280 350 l 1
 280 400 l 1
 230 400 l 1
 230 500 l 1
 30 500 l 1
EndSplineSet
EndChar

StartChar: 
Encoding: 17 56 17
Width: 384
VWidth: 1024
Flags: W
LayerCount: 2
Fore
SplineSet
93 500 m 1
 43 450 l 1
 43 400 l 1
 93 370 l 1
 43 350 l 1
 43 200 l 1
 93 150 l 1
 293 150 l 1
 343 200 l 1
 343 350 l 1
 293 370 l 1
 343 400 l 1
 343 450 l 1
 293 500 l 1
 93 500 l 1
143 450 m 1
 243 450 l 1
 243 400 l 1
 143 400 l 1
 143 450 l 1
143 350 m 1
 243 350 l 1
 243 200 l 1
 143 200 l 1
 143 350 l 1
EndSplineSet
EndChar

StartChar: 
Encoding: 18 57 18
Width: 385
VWidth: 1024
Flags: W
LayerCount: 2
Fore
SplineSet
93 500 m 1
 43 450 l 1
 43 300 l 1
 93 300 l 1
 243 300 l 1
 243 200 l 1
 43 200 l 1
 43 150 l 1
 293 150 l 1
 343 200 l 1
 343 450 l 1
 293 500 l 1
 93 500 l 1
143 450 m 1
 243 450 l 1
 243 350 l 1
 143 350 l 1
 143 450 l 1
EndSplineSet
EndChar

StartChar: 
Encoding: 19 58 19
Width: 135
VWidth: 1024
Flags: W
VStem: 43 50
LayerCount: 2
Fore
SplineSet
43 400 m 1
 43 350 l 1
 93 350 l 1
 93 400 l 1
 43 400 l 1
43 250 m 1
 43 200 l 1
 93 200 l 1
 93 250 l 1
 43 250 l 1
EndSplineSet
EndChar

StartChar: 
Encoding: 20 59 20
Width: 174
VWidth: 1024
Flags: W
LayerCount: 2
Fore
SplineSet
82 400 m 1
 82 350 l 1
 132 350 l 1
 132 400 l 1
 82 400 l 1
82 200 m 1
 32 150 l 1
 32 100 l 1
 82 100 l 1
 132 150 l 1
 132 200 l 1
 82 200 l 1
EndSplineSet
EndChar

StartChar: 
Encoding: 21 60 21
Width: 207
VWidth: 1024
Flags: W
HStem: 220.001 140
VStem: 33 140
LayerCount: 2
Fore
SplineSet
33 290.000976562 m 1
 103 360.000976562 l 1
 173 360.000976562 l 1
 103 290.000976562 l 1
 173 220.000976562 l 1
 103 220.000976562 l 1
 33 290.000976562 l 1
EndSplineSet
EndChar

StartChar: 
Encoding: 22 61 22
Width: 223
VWidth: 1024
Flags: W
VStem: 42 140
LayerCount: 2
Fore
SplineSet
42 325 m 1
 42 290 l 1
 182 290 l 1
 182 325 l 1
 42 325 l 1
42 255 m 1
 42 220 l 1
 182 220 l 1
 182 255 l 1
 42 255 l 1
EndSplineSet
EndChar

StartChar: 
Encoding: 23 62 23
Width: 208
VWidth: 1024
Flags: W
HStem: 220.001 140
LayerCount: 2
Fore
SplineSet
176 290.000976562 m 1
 106 360.000976562 l 1
 36 360.000976562 l 1
 106 290.000976562 l 1
 36 220.000976562 l 1
 106 220.000976562 l 1
 176 290.000976562 l 1
EndSplineSet
EndChar

StartChar: 
Encoding: 24 63 24
Width: 357
VWidth: 1024
Flags: W
LayerCount: 2
Fore
SplineSet
25 650 m 1
 25 600 l 1
 175 600 l 1
 225 550 l 1
 225 450 l 1
 125 350 l 1
 125 300 l 1
 225 300 l 1
 225 350 l 1
 325 450 l 1
 325 600 l 1
 275 650 l 1
 25 650 l 1
125 250 m 1
 125 150 l 1
 225 150 l 1
 225 250 l 1
 125 250 l 1
EndSplineSet
EndChar

StartChar: 
Encoding: 25 64 25
Width: 385
VWidth: 1024
Flags: W
LayerCount: 2
Fore
SplineSet
93 500 m 1
 43 450 l 1
 43 200 l 1
 93 150 l 1
 343 150 l 1
 343 200 l 1
 113 200 l 1
 93 220 l 1
 93 420 l 1
 123 450 l 1
 273 450 l 1
 293 430 l 1
 293 320 l 1
 273 300 l 1
 243 300 l 1
 243 400 l 1
 163 400 l 1
 143 380 l 1
 143 270 l 1
 163 250 l 1
 293 250 l 1
 343 300 l 1
 343 450 l 1
 293 500 l 1
 93 500 l 1
183 370 m 1
 203 370 l 1
 203 300 l 1
 183 300 l 1
 183 370 l 1
EndSplineSet
EndChar

StartChar: 
Encoding: 26 65 26
Width: 388
VWidth: 1024
Flags: W
HStem: 500 21G<142 242> 500 21G<142 242>
LayerCount: 2
Fore
SplineSet
92 750 m 1x00
 42 700 l 1
 42 150 l 1
 142 150 l 1
 142 450 l 1
 242 450 l 1
 242 150 l 1
 342 150 l 1
 342 700 l 1
 292 750 l 1
 92 750 l 1x00
142 700 m 1
 242 700 l 1
 242 500 l 1
 142 500 l 1x80
 142 700 l 1
EndSplineSet
EndChar

StartChar: 
Encoding: 27 66 27
Width: 389
VWidth: 1024
Flags: W
HStem: 500 21G<143 243> 500 21G<143 243>
LayerCount: 2
Fore
SplineSet
43 750 m 1x40
 43 150 l 1
 293 150 l 1
 343 200 l 1
 343 450 l 1
 293 470 l 1
 343 500 l 1
 343 700 l 1
 293 750 l 1
 43 750 l 1x40
143 700 m 1
 243 700 l 1
 243 500 l 1
 143 500 l 1x80
 143 700 l 1
143 450 m 1
 243 450 l 1
 243 200 l 1
 143 200 l 1
 143 450 l 1
EndSplineSet
EndChar

StartChar: 
Encoding: 28 67 28
Width: 379
VWidth: 1024
Flags: W
HStem: 150 50<141 341> 700 50<141 341>
VStem: 41 100<200 700>
LayerCount: 2
Fore
SplineSet
341 150 m 1
 91 150 l 1
 41 200 l 1
 41 700 l 1
 91 750 l 1
 341 750 l 1
 341 700 l 1
 141 700 l 1
 141 200 l 1
 341 200 l 1
 341 150 l 1
EndSplineSet
EndChar

StartChar: 
Encoding: 29 68 29
Width: 389
VWidth: 1024
Flags: W
LayerCount: 2
Fore
SplineSet
43 750 m 1
 43 151 l 1
 292.583007812 151 l 1
 342.5 200.916015625 l 1
 342.5 700.083007812 l 1
 292.583007812 750 l 1
 43 750 l 1
142.833007812 700.083007812 m 1
 242.666992188 700.083007812 l 1
 242.666992188 200.916015625 l 1
 142.833007812 200.916015625 l 1
 142.833007812 700.083007812 l 1
EndSplineSet
EndChar

StartChar: 
Encoding: 30 69 30
Width: 380
VWidth: 1024
Flags: W
VStem: 43 300
LayerCount: 2
Fore
SplineSet
43 750 m 1
 43 150 l 1
 343 150 l 1
 343 200 l 1
 143 200 l 1
 143 450 l 1
 293 450 l 1
 293 500 l 1
 143 500 l 1
 143 700 l 1
 343 700 l 1
 343 750 l 1
 43 750 l 1
EndSplineSet
EndChar

StartChar: 
Encoding: 31 70 31
Width: 370
VWidth: 1024
Flags: W
HStem: 150 21G<42 142> 450 50<142 292> 700 50<142 342>
VStem: 42 100<150 450 500 700>
LayerCount: 2
Fore
SplineSet
42 150 m 1
 42 700 l 1
 92 750 l 1
 342 750 l 1
 342 700 l 1
 142 700 l 1
 142 500 l 1
 292 500 l 1
 292 450 l 1
 142 450 l 1
 142 150 l 1
 42 150 l 1
EndSplineSet
EndChar

StartChar: 
Encoding: 32 71 32
Width: 386
VWidth: 1024
Flags: W
LayerCount: 2
Fore
SplineSet
91 750 m 1
 41 700 l 1
 41 200 l 1
 91 150 l 1
 291 150 l 1
 341 200 l 1
 341 500 l 1
 191 500 l 1
 191 450 l 1
 241 450 l 1
 241 200 l 1
 141 200 l 1
 141 700 l 1
 341 700 l 1
 341 750 l 1
 91 750 l 1
EndSplineSet
EndChar

StartChar: 
Encoding: 33 72 33
Width: 390
VWidth: 1024
Flags: W
HStem: 500 21G<143 243> 500 21G<143 243>
LayerCount: 2
Fore
SplineSet
43 750 m 1x80
 43 150 l 1
 143 150 l 1
 143 450 l 1
 243 450 l 1
 243 150 l 1
 343 150 l 1
 343 750 l 1
 243 750 l 1
 243 500 l 1
 143 500 l 1
 143 750 l 1
 43 750 l 1x80
EndSplineSet
EndChar

StartChar: 
Encoding: 34 73 34
Width: 190
VWidth: 1024
Flags: W
VStem: 43 100
LayerCount: 2
Fore
SplineSet
43 150 m 1
 143 150 l 1
 143 750 l 1
 43 750 l 1
 43 150 l 1
EndSplineSet
EndChar

StartChar: 
Encoding: 35 74 35
Width: 382
VWidth: 1024
Flags: W
LayerCount: 2
Fore
SplineSet
36 300 m 1
 36 200 l 1
 86 150 l 1
 286 150 l 1
 336 200 l 1
 336 750 l 1
 236 750 l 1
 236 200 l 1
 136 200 l 1
 136 300 l 1
 36 300 l 1
EndSplineSet
EndChar

StartChar: 
Encoding: 36 75 36
Width: 372
VWidth: 1024
Flags: W
HStem: 150 21G<43 143 236.333 343> 730 20G<43 143 243 335>
VStem: 43 100<150 450 500 750>
LayerCount: 2
Fore
SplineSet
43 150 m 1
 43 750 l 1
 143 750 l 1
 143 500 l 1
 243 750 l 1
 343 750 l 1
 243 500 l 1
 343 150 l 1
 243 150 l 1
 143 450 l 1
 143 150 l 1
 43 150 l 1
EndSplineSet
EndChar

StartChar: 
Encoding: 37 76 37
Width: 324
VWidth: 1024
Flags: W
HStem: 150 50<142 292> 730 20G<42 142>
VStem: 42 100<200 750>
LayerCount: 2
Fore
SplineSet
92 150 m 1
 42 200 l 1
 42 750 l 1
 142 750 l 1
 142 200 l 1
 292 200 l 1
 292 150 l 1
 92 150 l 1
EndSplineSet
EndChar

StartChar: 
Encoding: 38 77 38
Width: 490
VWidth: 1024
Flags: W
HStem: 150 21G<43 143 343 443> 730 20G<43 163 323 443>
VStem: 43 100<150 650> 343 100<150 650>
LayerCount: 2
Fore
SplineSet
43 150 m 1
 43 750 l 1
 143 750 l 1
 243 650 l 1
 343 750 l 1
 443 750 l 1
 443 150 l 1
 343 150 l 1
 343 650 l 1
 243 550 l 1
 143 650 l 1
 143 150 l 1
 43 150 l 1
EndSplineSet
EndChar

StartChar: 
Encoding: 39 78 39
Width: 490
VWidth: 1024
Flags: W
HStem: 150 21G<43 143 334.111 443> 730 20G<43 151.889 343 443>
VStem: 43 100<150 600> 343 100<300 750>
LayerCount: 2
Fore
SplineSet
43 150 m 1
 43 750 l 1
 143 750 l 1
 343 300 l 1
 343 750 l 1
 443 750 l 1
 443 150 l 1
 343 150 l 1
 143 600 l 1
 143 150 l 1
 43 150 l 1
EndSplineSet
EndChar

StartChar: 
Encoding: 40 79 40
Width: 387
VWidth: 1024
Flags: W
LayerCount: 2
Fore
SplineSet
91 750 m 1
 41 700 l 1
 41 200 l 1
 91 150 l 1
 291 150 l 1
 341 200 l 1
 341 700 l 1
 291 750 l 1
 91 750 l 1
141 700 m 1
 241 700 l 1
 241 200 l 1
 141 200 l 1
 141 700 l 1
EndSplineSet
EndChar

StartChar: 
Encoding: 41 80 41
Width: 380
VWidth: 1024
Flags: W
HStem: 500 21G<143 243> 500 21G<143 243>
LayerCount: 2
Fore
SplineSet
43 750 m 1x40
 43 150 l 1
 143 150 l 1
 143 450 l 1
 293 450 l 1
 343 500 l 1
 343 700 l 1
 293 750 l 1
 43 750 l 1x40
143 700 m 1
 243 700 l 1
 243 500 l 1
 143 500 l 1x80
 143 700 l 1
EndSplineSet
EndChar

StartChar: 
Encoding: 42 81 42
Width: 387
VWidth: 1024
Flags: W
LayerCount: 2
Fore
SplineSet
90.9921875 750 m 1
 41 700 l 1
 41 200.001953125 l 1
 90.9921875 150.002929688 l 1
 240.954101562 150.002929688 l 1
 240.954101562 100 l 1
 340.927734375 100 l 1
 340.927734375 150.002929688 l 1
 290.940429688 150.002929688 l 1
 340.927734375 200.001953125 l 1
 340.927734375 700 l 1
 290.940429688 750 l 1
 90.9921875 750 l 1
141.250976562 700 m 1
 240.954101562 700 l 1
 240.954101562 200.001953125 l 1
 140.978515625 200.001953125 l 1
 141.250976562 700 l 1
EndSplineSet
EndChar

StartChar: 
Encoding: 43 82 43
Width: 389
VWidth: 1024
Flags: W
HStem: 500 21G<143 243> 500 21G<143 243>
LayerCount: 2
Fore
SplineSet
43 750 m 1x40
 43 150 l 1
 143 150 l 1
 143 450 l 1
 243 450 l 1
 243 150 l 1
 343 150 l 1
 343 450 l 1
 293 500 l 1
 343 550 l 1
 343 700 l 1
 293 750 l 1
 43 750 l 1x40
143 700 m 1
 243 700 l 1
 243 500 l 1
 143 500 l 1x80
 143 700 l 1
EndSplineSet
EndChar

StartChar: 
Encoding: 44 83 44
Width: 384
VWidth: 1024
Flags: W
HStem: 150 50<39 238.999> 449.999 50<139 238.999> 699.999 50<139 338.999>
VStem: 39 100<499.999 699.999> 238.999 100<200 449.999>
LayerCount: 2
Fore
SplineSet
338.999023438 749.999023438 m 1
 338.999023438 699.999023438 l 1
 139 699.999023438 l 1
 139 499.999023438 l 1
 288.999023438 499.999023438 l 1
 338.999023438 449.999023438 l 1
 338.999023438 200 l 1
 288.999023438 150 l 1
 39 150 l 1
 39 200 l 1
 238.999023438 200 l 1
 238.999023438 449.999023438 l 1
 89 449.999023438 l 1
 39 499.999023438 l 1
 39 699.999023438 l 1
 89 749.999023438 l 1
 338.999023438 749.999023438 l 1
EndSplineSet
EndChar

StartChar: 
Encoding: 45 84 45
Width: 351
VWidth: 1024
Flags: W
HStem: 150 21G<125 225> 700 50<25 125 225 325>
VStem: 125 100<150 700>
LayerCount: 2
Fore
SplineSet
125 150 m 1
 125 700 l 1
 25 700 l 1
 25 750 l 1
 325 750 l 1
 325 700 l 1
 225 700 l 1
 225 150 l 1
 125 150 l 1
EndSplineSet
EndChar

StartChar: 
Encoding: 46 85 46
Width: 388
VWidth: 1024
Flags: W
HStem: 150.002 50<142 242> 730 20G<42 142 242 341.999>
VStem: 42 100<200.002 750> 242 99.999<200.002 750>
LayerCount: 2
Fore
SplineSet
92 150.001953125 m 1
 42 200.001953125 l 1
 42 750 l 1
 142 750 l 1
 142 200.001953125 l 1
 242 200.001953125 l 1
 242 750 l 1
 341.999023438 750 l 1
 341.999023438 200 l 1
 292 150 l 1
 92 150.001953125 l 1
EndSplineSet
EndChar

StartChar: 
Encoding: 47 86 47
Width: 389
VWidth: 1024
Flags: W
HStem: 150 50<143 193> 730 20G<43 143 243 343>
VStem: 43 100<200 750> 243 100<250 750>
LayerCount: 2
Fore
SplineSet
43 150 m 1
 43 750 l 1
 143 750 l 1
 143 200 l 1
 193 200 l 1
 243 250 l 1
 243 750 l 1
 343 750 l 1
 343 250 l 1
 243 150 l 1
 43 150 l 1
EndSplineSet
EndChar

StartChar: 
Encoding: 48 87 48
Width: 589
VWidth: 1024
Flags: W
LayerCount: 2
Fore
SplineSet
43 750 m 1
 43 150 l 1
 243 150 l 1
 443 150 l 1
 543 250 l 1
 543 750 l 1
 443 750 l 1
 443 250 l 1
 393 200 l 1
 343 200 l 1
 343 250 l 1
 343 750 l 1
 243 750 l 1
 243 200 l 1
 143 200 l 1
 143 750 l 1
 43 750 l 1
EndSplineSet
EndChar

StartChar: 
Encoding: 49 88 49
Width: 387
VWidth: 1024
Flags: W
HStem: 500 21G<142.001 242.001> 500 21G<142.001 242.001>
LayerCount: 2
Fore
SplineSet
42 750 m 1x80
 42 550 l 1
 92 479.999023438 l 1
 42 399.999023438 l 1
 42 149.999023438 l 1
 142.000976562 149.999023438 l 1
 142.000976562 449.999023438 l 1
 242.000976562 449.999023438 l 1
 242.000976562 149.999023438 l 1
 342.000976562 149.999023438 l 1
 342.000976562 399.999023438 l 1
 292.000976562 479.999023438 l 1
 342.000976562 550 l 1
 342.000976562 750 l 1
 242.000976562 750 l 1
 242.000976562 500 l 1
 142.000976562 500 l 1
 142.000976562 750 l 1
 42 750 l 1x80
EndSplineSet
EndChar

StartChar: 
Encoding: 50 89 50
Width: 369
VWidth: 1024
Flags: W
HStem: 150 21G<133 233> 730 20G<33 133 233 333>
VStem: 33 100<550 750> 133 100<150 450> 233 100<550 750>
LayerCount: 2
Fore
SplineSet
133 150 m 1xd0
 133 450 l 1xd0
 33 550 l 1
 33 750 l 1
 133 750 l 1
 133 550 l 1
 183 500.000976562 l 1
 233 550 l 1
 233 750 l 1
 333 750 l 1
 333 550 l 1xe8
 233 450 l 1
 233 150 l 1
 133 150 l 1xd0
EndSplineSet
EndChar

StartChar: 
Encoding: 51 90 51
Width: 376
VWidth: 1024
Flags: W
HStem: 150 50<138 338> 700 50<38 238>
VStem: 38 100<200 250> 238 100<650 700>
LayerCount: 2
Fore
SplineSet
38 700 m 1
 38 750 l 1
 338 750 l 1
 338 700 l 1
 338 650 l 1
 138 250 l 1
 138 200 l 1
 338 200 l 1
 338 150 l 1
 38 150 l 1
 38 250 l 1
 238 650 l 1
 238 700 l 1
 38 700 l 1
EndSplineSet
EndChar

StartChar: 
Encoding: 52 97 52
Width: 385
VWidth: 1024
Flags: W
VStem: 39 300
LayerCount: 2
Fore
SplineSet
39 500 m 2
 39 450 l 1
 239 450 l 1
 239 400 l 1
 89 400 l 1
 39 350 l 1
 39 200 l 1
 90.171875 150 l 1
 289 150 l 1
 339 150 l 1
 339 500 l 2
 39 500 l 2
139 350 m 1
 239 350 l 1
 239 200 l 1
 139 200 l 1
 139 350 l 1
EndSplineSet
EndChar

StartChar: 
Encoding: 53 98 53
Width: 385
VWidth: 1024
Flags: W
LayerCount: 2
Fore
SplineSet
141 750 m 1
 41 650 l 1
 41 150 l 1
 291 150 l 1
 341 200 l 1
 341 450 l 1
 291 500 l 1
 141 500 l 1
 141 750 l 1
141 450 m 1
 241 450 l 1
 241 200 l 1
 141 200 l 1
 141 450 l 1
EndSplineSet
EndChar

StartChar: 
Encoding: 54 99 54
Width: 383
VWidth: 1024
Flags: W
LayerCount: 2
Fore
SplineSet
340 500 m 1
 90 500 l 1
 40 450 l 1
 40 200 l 1
 90 150 l 1
 340 150 l 1
 340 200 l 1
 140 200 l 1
 140 450 l 1
 340 450 l 1
 340 500 l 1
EndSplineSet
EndChar

StartChar: 
Encoding: 55 100 55
Width: 385
VWidth: 1024
Flags: W
LayerCount: 2
Fore
SplineSet
239 750 m 1
 239 500 l 1
 89 500 l 1
 39 450 l 1
 39 200 l 1
 89 150 l 1
 339 150 l 1
 339 650 l 1
 239 750 l 1
139 450 m 1
 239 450 l 1
 239 200 l 1
 139 200 l 1
 139 450 l 1
EndSplineSet
EndChar

StartChar: 
Encoding: 56 101 56
Width: 385
VWidth: 1024
Flags: W
LayerCount: 2
Fore
SplineSet
90 500 m 1
 40 450 l 1
 40 200 l 1
 90 150 l 1
 340 150 l 2
 340 149.999023438 340 200 340 200 c 1
 140 200 l 1
 140 300 l 1
 340 300 l 1
 340 450 l 1
 288.828125 500 l 1
 90 500 l 1
140 450 m 1
 240 450 l 1
 240 350 l 1
 140 350 l 1
 140 450 l 1
EndSplineSet
EndChar

StartChar: 
Encoding: 57 102 57
Width: 370
VWidth: 1024
Flags: W
LayerCount: 2
Fore
SplineSet
92 750 m 1
 42 700 l 1
 42 600 l 1
 42 550 l 1
 42 150 l 1
 142 150 l 1
 142 550 l 1
 242 550 l 1
 292 599.998046875 l 1
 242 600 l 1
 142 600 l 1
 142 700 l 1
 342 700 l 1
 342 750 l 1
 92 750 l 1
EndSplineSet
EndChar

StartChar: 
Encoding: 58 103 58
Width: 386
VWidth: 1024
Flags: W
LayerCount: 2
Fore
SplineSet
91.171875 500 m 1
 40 450 l 1
 41.171875 190 l 1
 91.171875 150 l 1
 241.171875 150 l 1
 241.171875 50 l 1
 40 50 l 1
 40 0 l 1
 290 0 l 1
 340 50 l 1
 340 500 l 1
 290 500 l 1
 91.171875 500 l 1
141.171875 450 m 1
 241.171875 450 l 1
 241.171875 200 l 1
 141.171875 200 l 1
 141.171875 450 l 1
EndSplineSet
EndChar

StartChar: 
Encoding: 59 104 59
Width: 385
VWidth: 1024
Flags: W
LayerCount: 2
Fore
SplineSet
141 750 m 1
 41 650 l 1
 41 150 l 1
 141 150 l 1
 141 450 l 1
 241 450 l 1
 241 150 l 1
 341 150 l 1
 341 450 l 1
 291 500 l 1
 141 500 l 1
 141 750 l 1
EndSplineSet
EndChar

StartChar: 
Encoding: 60 105 60
Width: 189
VWidth: 1024
Flags: W
VStem: 42 100
LayerCount: 2
Fore
SplineSet
42 649.998046875 m 1
 42 549.998046875 l 1
 142 549.998046875 l 1
 142 649.998046875 l 1
 42 649.998046875 l 1
42 500 m 1
 42 150 l 1
 142 150 l 1
 142 500 l 1
 42 500 l 1
EndSplineSet
EndChar

StartChar: 
Encoding: 61 106 61
Width: 266
VWidth: 1024
Flags: W
LayerCount: 2
Fore
SplineSet
121 650 m 1
 121 550 l 1
 221 550 l 1
 221 650 l 1
 121 650 l 1
121 500 m 1
 121.001953125 150 l 1
 121.001953125 50 l 1
 71 50 l 1
 21 50 l 1
 21 0 l 1
 71 0 l 1
 170.412109375 0 l 1
 220.4140625 50 l 1
 219.82421875 500 l 1
 121 500 l 1
EndSplineSet
EndChar

StartChar: 
Encoding: 62 107 62
Width: 370
VWidth: 1024
Flags: W
LayerCount: 2
Fore
SplineSet
141 750 m 1
 41 650 l 1
 41 500 l 1
 41 150 l 1
 141 150 l 1
 141 287.5 l 1
 251 150 l 1
 341 150 l 1
 191 350 l 1
 341 600 l 1
 251 600 l 1
 141 428.125 l 1
 141 450 l 1
 141 500 l 1
 141 750 l 1
EndSplineSet
EndChar

StartChar: 
Encoding: 63 108 63
Width: 188
VWidth: 1024
Flags: W
VStem: 41 100
LayerCount: 2
Fore
SplineSet
41 150 m 1
 141 150 l 1
 141 750 l 1
 41 650 l 1
 41 150 l 1
EndSplineSet
EndChar

StartChar: 
Encoding: 64 109 64
Width: 586
VWidth: 1024
Flags: W
LayerCount: 2
Fore
SplineSet
41 500 m 1
 41 150 l 1
 141 150 l 1
 141 450 l 1
 241 450 l 1
 241 150 l 1
 341 150 l 1
 341 400.126953125 l 1
 341 450 l 1
 441 450 l 1
 441 150 l 1
 541 150 l 1
 541 450 l 1
 491 500 l 1
 241 500 l 1
 41 500 l 1
EndSplineSet
EndChar

StartChar: 
Encoding: 65 110 65
Width: 386
VWidth: 1024
Flags: W
HStem: 150 21G<41 141 241 341> 450 50<141 241>
VStem: 41 100<150 450> 241 100<150 450>
LayerCount: 2
Fore
SplineSet
41 500 m 1
 291 500 l 1
 341 450 l 1
 341 150 l 1
 241 150 l 1
 241 450 l 1
 141 450 l 1
 141 150 l 1
 41 150 l 1
 41 500 l 1
EndSplineSet
EndChar

StartChar: 
Encoding: 66 111 66
Width: 385
VWidth: 1024
Flags: W
LayerCount: 2
Fore
SplineSet
90 500 m 1
 40 450 l 1
 40 200 l 1
 90 150 l 1
 290 150 l 1
 340 200 l 1
 340 450 l 1
 290 500 l 1
 90 500 l 1
140 450 m 1
 240 450 l 1
 240 200 l 1
 140 200 l 1
 140 450 l 1
EndSplineSet
EndChar

StartChar: 
Encoding: 67 112 67
Width: 386
VWidth: 1024
Flags: W
LayerCount: 2
Fore
SplineSet
42.171875 500 m 1
 41 0 l 1
 40.998046875 0 142.171875 0 142.171875 0 c 1
 141 150 l 1
 291 150 l 1
 341 190 l 1
 342.171875 450 l 1
 291 500 l 1
 92.171875 500 l 1
 42.171875 500 l 1
140.999023438 450 m 1
 241 450 l 1
 241 200 l 1
 140.999023438 200 l 1
 140.999023438 450 l 1
EndSplineSet
EndChar

StartChar: 
Encoding: 68 113 68
Width: 386
VWidth: 1024
Flags: W
HStem: 0 21G<240 341.172> 150 50<141.172 241.172> 450 50<141.172 241.173>
VStem: 41.1719 100<200 450> 241.173 99.999<0 150 200 450>
LayerCount: 2
Fore
SplineSet
340 500 m 1
 341.171875 0 l 1
 341.173828125 0 240 0 240 0 c 1
 241.171875 150 l 1
 91.171875 150 l 1
 41.171875 190 l 1
 40 450 l 1
 91.171875 500 l 1
 290 500 l 1
 340 500 l 1
241.172851562 450 m 1
 141.171875 450 l 1
 141.171875 200 l 1
 241.172851562 200 l 1
 241.172851562 450 l 1
EndSplineSet
EndChar

StartChar: 
Encoding: 69 114 69
Width: 276
VWidth: 1024
Flags: W
HStem: 150 21G<41 141> 450 50<141 241>
VStem: 41 100<150 450>
LayerCount: 2
Fore
SplineSet
91 500 m 1
 241 500 l 1
 241 450 l 1
 141 450 l 1
 141 150 l 1
 41 150 l 1
 41 450 l 1
 91 500 l 1
EndSplineSet
EndChar

StartChar: 
Encoding: 70 115 70
Width: 383
VWidth: 1024
Flags: W
LayerCount: 2
Fore
SplineSet
339 500 m 1
 89 500 l 1
 39 450 l 1
 39 370.499023438 l 1
 89 320 l 1
 239 320 l 1
 239 200 l 1
 39 200 l 1
 39 150 l 1
 289 150 l 1
 339 200 l 1
 339 320 l 1
 289 370 l 1
 139 370 l 1
 139 450 l 1
 339 450 l 1
 339 500 l 1
EndSplineSet
EndChar

StartChar: 
Encoding: 71 116 71
Width: 344
VWidth: 1024
Flags: W
LayerCount: 2
Fore
SplineSet
222 750 m 1
 122 650 l 1
 122 600 l 1
 72 600 l 1
 22 550 l 1
 122 550 l 1
 122 200 l 1
 172 150 l 1
 272 150 l 1
 272 200 l 1
 222 200 l 1
 222 550 l 1
 272 550 l 1
 322 600 l 1
 272 600 l 1
 222 600 l 1
 222 750 l 1
EndSplineSet
EndChar

StartChar: 
Encoding: 72 117 72
Width: 385
VWidth: 1024
Flags: W
LayerCount: 2
Fore
SplineSet
40 500 m 1
 40 200 l 1
 90 150 l 1
 290 150 l 1
 340 200 l 1
 340 500 l 1
 240 500 l 1
 240 200 l 1
 140 200 l 1
 140 500 l 1
 40 500 l 1
EndSplineSet
EndChar

StartChar: 
Encoding: 73 118 73
Width: 385
VWidth: 1024
Flags: W
LayerCount: 2
Fore
SplineSet
41 500 m 1
 41 150 l 1
 241 150 l 1
 341 249.86328125 l 1
 341 500 l 1
 241 500 l 1
 241 250 l 1
 191 200 l 1
 141 200 l 1
 141 500 l 1
 41 500 l 1
EndSplineSet
EndChar

StartChar: 
Encoding: 74 119 74
Width: 586
VWidth: 1024
Flags: W
LayerCount: 2
Fore
SplineSet
41 500 m 1
 41 150 l 1
 241 150 l 1
 491 150 l 1
 541 200 l 1
 541 500 l 1
 441 500 l 1
 441 200 l 1
 341 200 l 1
 341 249.873046875 l 1
 341 500 l 1
 241 500 l 1
 241 200 l 1
 141 200 l 1
 141 500 l 1
 41 500 l 1
EndSplineSet
EndChar

StartChar: 
Encoding: 75 120 75
Width: 384
VWidth: 1024
Flags: W
LayerCount: 2
Fore
SplineSet
40 500 m 1
 40 400 l 1
 114.98046875 325.01953125 l 1
 40 250.13671875 l 1
 40 150 l 1
 140 150 l 1
 140 300 l 1
 240 300 l 1
 240 150 l 1
 340 150 l 1
 340 250 l 1
 265.01953125 324.98046875 l 1
 340 399.86328125 l 1
 340 500 l 1
 240 500 l 1
 240 350 l 1
 140 350 l 1
 140 500 l 1
 40 500 l 1
EndSplineSet
EndChar

StartChar: 
Encoding: 76 121 76
Width: 387
VWidth: 1024
Flags: W
LayerCount: 2
Fore
SplineSet
41 500 m 1
 41 190 l 1
 91 150 l 1
 241 150 l 1
 241 50 l 1
 41 50 l 1
 41 0 l 1
 291 0 l 1
 341 50 l 1
 341 500 l 1
 241 500 l 1
 241 200 l 1
 141 200 l 1
 141 500 l 1
 41 500 l 1
EndSplineSet
EndChar

StartChar: 
Encoding: 77 122 77
Width: 379
VWidth: 1024
Flags: W
VStem: 38 300
LayerCount: 2
Fore
SplineSet
38 500 m 1
 38 450 l 1
 238 450 l 1
 38 200 l 1
 38 150 l 1
 338 150 l 1
 338 200 l 1
 138 200 l 1
 338 450 l 1
 338 500 l 1
 38 500 l 1
EndSplineSet
EndChar

StartChar: 
Encoding: 78 196 78
Width: 366
VWidth: 1024
Flags: W
LayerCount: 2
Fore
SplineSet
43 750 m 1
 43 657.692382812 l 1
 135.307617188 657.692382812 l 1
 135.307617188 750 l 1
 43 750 l 1
227.615234375 750 m 1
 227.615234375 657.692382812 l 1
 319.922851562 657.692382812 l 1
 319.922851562 750 l 1
 227.615234375 750 l 1
89.154296875 611.538085938 m 1
 43 565.384765625 l 1
 43 150 l 1
 135.307617188 150 l 1
 135.307617188 380.76953125 l 1
 227.615234375 380.76953125 l 1
 227.615234375 150 l 1
 319.922851562 150 l 1
 319.922851562 565.384765625 l 1
 273.76953125 611.538085938 l 1
 89.154296875 611.538085938 l 1
135.307617188 565.384765625 m 1
 227.615234375 565.384765625 l 1
 227.615234375 426.922851562 l 1
 135.307617188 426.922851562 l 1
 135.307617188 565.384765625 l 1
EndSplineSet
EndChar

StartChar: 
Encoding: 79 203 79
Width: 384
VWidth: 1024
Flags: W
VStem: 43 300
LayerCount: 2
Fore
SplineSet
43 800 m 1
 43 700 l 1
 143 700 l 1
 143 800 l 1
 43 800 l 1
243 800 m 1
 243 700 l 1
 343 700 l 1
 343 800 l 1
 243 800 l 1
43 650 m 1
 43 150 l 1
 343 150 l 1
 343 200 l 1
 143 200 l 1
 143 400 l 1
 293 400 l 1
 293 450 l 1
 143 450 l 1
 143 600 l 1
 343 600 l 1
 343 650 l 1
 43 650 l 1
EndSplineSet
EndChar

StartChar: 
Encoding: 80 214 80
Width: 388
VWidth: 1024
Flags: W
LayerCount: 2
Fore
SplineSet
42 800 m 1
 42 700 l 1
 142 700 l 1
 142 800 l 1
 42 800 l 1
242 800 m 1
 242 700 l 1
 342 700 l 1
 342 800 l 1
 242 800 l 1
92 650 m 1
 42 600 l 1
 42 200 l 1
 92 150 l 1
 292 150 l 1
 342 200 l 1
 342 600 l 1
 292 650 l 1
 92 650 l 1
142 600 m 1
 242 600 l 1
 242 200 l 1
 142 200 l 1
 142 600 l 1
EndSplineSet
EndChar

StartChar: 
Encoding: 81 220 81
Width: 389
VWidth: 1024
Flags: W
LayerCount: 2
Fore
SplineSet
42 800 m 1
 42 699.744140625 l 1
 142.255859375 699.744140625 l 1
 142.255859375 800 l 1
 42 800 l 1
242.51171875 800 m 1
 242.51171875 699.744140625 l 1
 342.767578125 699.744140625 l 1
 342.767578125 800 l 1
 242.51171875 800 l 1
42.255859375 651.154296875 m 1
 42.255859375 200 l 1
 92.3828125 149.87109375 l 1
 292.896484375 149.87109375 l 1
 343.025390625 200 l 1
 343.025390625 651.154296875 l 1
 242.767578125 651.154296875 l 1
 242.767578125 200 l 1
 142.51171875 200 l 1
 142.51171875 651.154296875 l 1
 42.255859375 651.154296875 l 1
EndSplineSet
EndChar

StartChar: 
Encoding: 82 228 82
Width: 388
VWidth: 1024
Flags: W
VStem: 41 300
LayerCount: 2
Fore
SplineSet
41 650 m 1
 41 550 l 1
 141 550 l 1
 141 650 l 1
 41 650 l 1
241 650 m 1
 241 550 l 1
 341 550 l 1
 341 650 l 1
 241 650 l 1
41 500 m 1
 41 450 l 1
 241 450 l 1
 241 400 l 1
 91 400 l 1
 41 350 l 1
 41 200 l 1
 92.173828125 150 l 1
 291 150 l 1
 341 150 l 1
 341 500 l 2
 41 500 l 1
141 350 m 1
 241 350 l 1
 241 200 l 1
 141 200 l 1
 141 350 l 1
EndSplineSet
EndChar

StartChar: 
Encoding: 83 235 83
Width: 386
VWidth: 1024
Flags: W
LayerCount: 2
Fore
SplineSet
41 650 m 1
 41 550 l 1
 141 550 l 1
 141 650 l 1
 41 650 l 1
241 650 m 1
 241 550 l 1
 341 550 l 1
 341 650 l 1
 241 650 l 1
91 500 m 1
 41 450 l 1
 41 200 l 1
 91 150 l 1
 341 150 l 2
 341 200 l 1
 141 200 l 1
 141 300 l 1
 341 300 l 1
 341 450 l 1
 289.828125 500 l 1
 91 500 l 1
141 450 m 1
 241 450 l 1
 241 350 l 1
 141 350 l 1
 141 450 l 1
EndSplineSet
EndChar

StartChar: 
Encoding: 84 246 84
Width: 387
VWidth: 1024
Flags: W
LayerCount: 2
Fore
SplineSet
41 650 m 1
 41 550 l 1
 141 550 l 1
 141 650 l 1
 41 650 l 1
241 650 m 1
 241 550 l 1
 341 550 l 1
 341 650 l 1
 241 650 l 1
91 500 m 1
 41 450 l 1
 41 200 l 1
 91 150 l 1
 291 150 l 1
 341 200 l 1
 341 450 l 1
 291 500 l 1
 91 500 l 1
141 450 m 1
 241 450 l 1
 241 200 l 1
 141 200 l 1
 141 450 l 1
EndSplineSet
EndChar

StartChar: 
Encoding: 85 252 85
Width: 387
VWidth: 1024
Flags: W
LayerCount: 2
Fore
SplineSet
41 650 m 1
 41 550 l 1
 141 550 l 1
 141 650 l 1
 41 650 l 1
241 650 m 1
 241 550 l 1
 341 550 l 1
 341 650 l 1
 241 650 l 1
41 500 m 1
 41 200 l 1
 91 150 l 1
 291 150 l 1
 341 200 l 1
 341 500 l 1
 241 500 l 1
 241 200 l 1
 141 200 l 1
 141 500 l 1
 41 500 l 1
EndSplineSet
EndChar

StartChar: 
Encoding: 86 8364 86
Width: 374
VWidth: 1024
Flags: W
LayerCount: 2
Fore
SplineSet
138 500 m 1
 88 450 l 1
 88 400 l 1
 38 400 l 1
 38 350 l 1
 88 350 l 1
 88 300 l 1
 38 300 l 1
 38 250 l 1
 88 250 l 1
 88 200 l 1
 138 150 l 1
 338 150 l 1
 338 200 l 1
 188 200 l 1
 188 250 l 1
 298 250 l 1
 298 300 l 1
 188 300 l 1
 188 350 l 1
 298 350 l 1
 298 400 l 1
 188 400 l 1
 188 450 l 1
 338 450 l 1
 338 500 l 1
 138 500 l 1
EndSplineSet
EndChar

StartChar: 
Encoding: 87 38 87
Width: 422
VWidth: 1024
Flags: W
LayerCount: 2
Fore
SplineSet
92 600 m 1
 42 550 l 1
 42 450 l 1
 92 400 l 1
 42 350 l 1
 42 200 l 1
 92 150 l 1
 292 150 l 1
 342 200 l 1
 342 400 l 1
 392 400 l 1
 392 450 l 1
 242 450 l 1
 242 200 l 1
 142 200 l 1
 142 380 l 1
 192 380 l 1
 192 430 l 1
 142 430 l 1
 142 550 l 1
 242 550 l 1
 242 500 l 1
 342 500 l 1
 342 550 l 1
 292 600 l 1
 92 600 l 1
EndSplineSet
EndChar

StartChar: 
Encoding: 88 44 88
Width: 197
VWidth: 1024
Flags: W
LayerCount: 2
Fore
SplineSet
98 150 m 1
 48 100 l 1
 48 50 l 1
 98 50 l 1
 148 100 l 1
 148 150 l 1
 98 150 l 1
EndSplineSet
EndChar

StartChar: 
Encoding: 89 47 89
Width: 302
VWidth: 1024
Flags: W
LayerCount: 2
Fore
SplineSet
178 750 m 1
 28 150 l 1
 128 150 l 1
 278 750 l 1
 178 750 l 1
EndSplineSet
EndChar
